<?xml version="1.0" encoding="UTF-8"?> <svg xmlns="http://www.w3.org/2000/svg" width="155.604" height="138.406" viewBox="0 0 155.604 138.406"><g id="Layer_2-0" data-name="Layer 2-0" transform="translate(-2.198 -5.797)"><g id="Layer_1-2-6" data-name="Layer 1-2-6"><path id="path8-5" d="M80.088,5.8a53.39,53.39,0,1,0,.032,0Zm32.61,80.4s-2.584-11.689-6.8-18.678C103.608,63.7,100.075,60.6,95.358,60.7c-3.315,0-6.226,1.884-9.791,6.911A82.979,82.979,0,0,0,80.073,78.3s-1.292-3-2.8-5.977a35.91,35.91,0,0,0-2.693-4.67c-3.58-5.028-6.475-6.849-9.79-6.911-4.67-.094-8.25,3-10.523,6.8-4.218,7-6.8,18.679-6.8,18.679H43.618l20.5-67.29L79.964,71.467l.109.094.109-.094L96.028,18.934l20.515,67.258Z" fill="#a0272d"></path><path id="path10-5" d="M80.149,122.716A10.743,10.743,0,1,0,90.893,133.46,10.743,10.743,0,0,0,80.149,122.716Zm0,17.46a6.72,6.72,0,1,1,.008,0Zm-17.488-4.368v-9.065h5.194v-4.027H62.661v-5.364H58.634v18.456a8.409,8.409,0,0,0,8.424,8.4h.868v-4.027h-.854a4.382,4.382,0,0,1-4.411-4.354Zm53.5-13.092a10.743,10.743,0,1,0,10.744,10.744A10.743,10.743,0,0,0,116.165,122.716Zm0,17.46a6.716,6.716,0,1,1,6.717-6.716h0A6.717,6.717,0,0,1,116.165,140.176Zm30.907-17.46a10.744,10.744,0,1,0,6.88,18.983v2.213h3.85V133.46a10.752,10.752,0,0,0-10.7-10.744Zm0,17.46a6.716,6.716,0,1,1,6.717-6.716h0a6.723,6.723,0,0,1-6.688,6.716ZM93.589,131.1v12.807h4.02V131.1a4.383,4.383,0,0,1,4.376-4.376H103.9v-4.013h-1.914A8.411,8.411,0,0,0,93.589,131.1Zm36.038,12.807h4.034v-26.56h-4.034Zm-106.262-21.2a8.418,8.418,0,0,0-6.4,2.953A8.382,8.382,0,0,0,2.2,131.1v12.807H6.225V131.1a4.376,4.376,0,0,1,8.745-.353c0,.117,0,.235,0,.353v12.807H19V131.1a4.376,4.376,0,1,1,8.744-.353c.005.117.005.235,0,.353v12.807h4.02V131.1A8.411,8.411,0,0,0,23.365,122.716Zm21.864,0a10.744,10.744,0,1,0,10.715,10.772v-.028A10.757,10.757,0,0,0,45.229,122.716Zm0,17.46a6.72,6.72,0,1,1,.008,0Z" fill="#a0272d"></path></g></g></svg> 